HIERARCHY
ROOT Hips
{
	OFFSET	0.000000	0.000000	0.000000
	CHANNELS 6 Xposition Yposition Zposition Zrotation Xrotation Yrotation
	JOINT LeftUpLeg
	{
		OFFSET	12.830505	-7.049846	-1.643436
		CHANNELS 3 Zrotation Xrotation Yrotation
		JOINT LeftLeg
		{
			OFFSET	0.620834	-39.957502	-1.919341
			CHANNELS 3 Zrotation Xrotation Yrotation
			JOINT LeftFoot
			{
				OFFSET	-0.413890	-44.704761	-3.870325
				CHANNELS 3 Zrotation Xrotation Yrotation
				JOINT LeftFootHeel
				{
					OFFSET	0.164738	-8.918194	-6.555130
					CHANNELS 3 Zrotation Xrotation Yrotation
					End Site
					{
						OFFSET	-0.604053	0.000000	21.044330
					}
				}
			}
		}
	}
	JOINT RightUpLeg
	{
		OFFSET	-12.830505	-7.049846	-1.643436
		CHANNELS 3 Zrotation Xrotation Yrotation
		JOINT RightLeg
		{
			OFFSET	-0.620834	-39.957502	-1.919341
			CHANNELS 3 Zrotation Xrotation Yrotation
			JOINT RightFoot
			{
				OFFSET	0.413890	-44.704761	-3.870325
				CHANNELS 3 Zrotation Xrotation Yrotation
				JOINT RightFootHeel
				{
					OFFSET	-0.164738	-8.918194	-6.555130
					CHANNELS 3 Zrotation Xrotation Yrotation
					End Site
					{
						OFFSET	0.604053	0.000000	21.044330
					}
				}
			}
		}
	}
	JOINT Spine
	{
		OFFSET	0.000000	12.498171	1.820647
		CHANNELS 3 Zrotation Xrotation Yrotation
		JOINT Spine1
		{
			OFFSET	0.000000	7.620000	0.000000
			CHANNELS 3 Zrotation Xrotation Yrotation
			JOINT LeftShoulder
			{
				OFFSET	9.167800	29.136339	-5.551221
				CHANNELS 3 Zrotation Xrotation Yrotation
				JOINT LeftArm
				{
					OFFSET	12.133453	-3.880866	1.461963
					CHANNELS 3 Zrotation Xrotation Yrotation
					JOINT LeftForeArm
					{
						OFFSET	2.507115	-31.664910	-1.069404
						CHANNELS 3 Zrotation Xrotation Yrotation
						JOINT LeftHand
						{
							OFFSET	4.116172	-24.512624	5.009439
							CHANNELS 3 Zrotation Xrotation Yrotation
							End Site
							{
								OFFSET	-0.213136	-10.931856	2.182134
							}
						}
					}
				}
			}
			JOINT RightShoulder
			{
				OFFSET	-9.167800	29.136339	-5.551221
				CHANNELS 3 Zrotation Xrotation Yrotation
				JOINT RightArm
				{
					OFFSET	-12.133453	-3.880866	1.461963
					CHANNELS 3 Zrotation Xrotation Yrotation
					JOINT RightForeArm
					{
						OFFSET	-2.507115	-31.664910	-1.069404
						CHANNELS 3 Zrotation Xrotation Yrotation
						JOINT RightHand
						{
							OFFSET	-4.116172	-24.512624	5.009439
							CHANNELS 3 Zrotation Xrotation Yrotation
							End Site
							{
								OFFSET	0.213136	-10.931856	2.182134
							}
						}
					}
				}
			}
			JOINT Neck
			{
				OFFSET	0.000000	32.926275	-3.635654
				CHANNELS 3 Zrotation Xrotation Yrotation
				JOINT Head
				{
					OFFSET	0.000000	12.481178	4.646143
					CHANNELS 3 Zrotation Xrotation Yrotation
					End Site
					{
						OFFSET	0.000000	17.715205	-2.222063
					}
				}
			}
		}
	}
}
MOTION
Frames:     13
Frame Time: 0.016667
0.000000	100.812905	0.000000	5.159876	2.142638	-49.383114	7.401580	-18.729612	12.791195	2.781135	20.351534	8.540612	-7.718837	-3.164864	7.213402	0.	0.	0.	-15.754148	-16.023575	-8.664092	2.704991	22.193108	-1.519857	8.269245	-7.954155	12.504729	0.	0.	0.	-0.000000	0.000000	-0.000001	2.617498	12.436888	0.864748	5.599589	-3.989286	3.670990	0.213796	-7.660322	-1.300501	56.026848	-135.354752	65.015732	-22.611383	-1.962303	6.940495	-1.376541	-0.714866	-9.163857	-15.439792	-15.694486	4.944804	-61.305882	-125.768990	-70.952286	-0.319700	-7.094886	15.917810	-1.973789	6.314985	16.138308	-11.349408	-3.008808	9.585449	
-0.014469	100.809301	0.005307	5.162704	2.144094	-49.383488	7.401068	-18.732643	12.791896	2.793107	20.367947	8.537901	-7.732563	-3.179099	7.209998	0.	0.	0.	-15.755051	-16.026623	-8.664697	2.711364	22.196507	-1.522542	8.263548	-7.957630	12.505526	0.	0.	0.	-0.000000	0.000001	0.000003	2.627089	12.485678	0.868793	5.592047	-4.035608	3.671918	0.212853	-7.647427	-1.299039	56.008411	-135.367599	65.010384	-22.650030	-1.954387	6.924963	-1.388754	-0.747940	-9.162711	-15.445329	-15.705182	4.958236	-61.368511	-125.735725	-71.006798	-0.321879	-7.136240	15.929991	-1.983899	6.263511	16.130610	-11.373423	-3.006279	9.603253	
-0.026631	100.806219	0.009757	5.165527	2.145545	-49.383854	7.400558	-18.735668	12.792591	2.803135	20.381678	8.535614	-7.744055	-3.191009	7.207157	0.	0.	0.	-15.755951	-16.029663	-8.665306	2.711364	22.196507	-1.522542	8.263548	-7.957630	12.505526	0.	0.	0.	-0.000000	0.000001	0.000001	2.632503	12.513695	0.871382	5.598884	-4.044935	3.678215	0.200495	-7.649278	-1.301795	55.989067	-135.381027	65.006111	-22.661768	-1.976719	6.908549	-1.396420	-0.762275	-9.159589	-15.453358	-15.708315	4.970515	-61.371731	-125.714714	-71.006798	-0.323240	-7.150362	15.936445	-1.980670	6.252004	16.125305	-11.415457	-3.019015	9.620229	
-0.029303	100.805590	0.010738	5.165527	2.145545	-49.383854	7.400558	-18.735668	12.792591	2.805388	20.384775	8.535113	-7.746641	-3.193695	7.206506	0.	0.	0.	-15.755951	-16.029663	-8.665306	2.720557	22.201408	-1.526417	8.255326	-7.962647	12.506666	0.	0.	0.	-0.000000	0.000001	0.000001	2.638687	12.544514	0.873531	5.605049	-4.056001	3.684378	0.188313	-7.653299	-1.305132	55.975716	-135.394669	65.008942	-22.691713	-1.989278	6.890039	-1.403921	-0.778162	-9.157241	-15.462628	-15.706429	4.981038	-61.339607	-125.718460	-70.974358	-0.341471	-7.150080	15.937761	-1.975180	6.244610	16.119728	-11.457704	-3.035117	9.634429	
-0.029303	100.805590	0.010738	5.165527	2.145545	-49.383854	7.400558	-18.735668	12.792591	2.805388	20.384775	8.535113	-7.746641	-3.193695	7.206506	0.	0.	0.	-15.759871	-16.054554	-8.673814	2.729178	22.253336	-1.520113	8.245684	-7.989615	12.506717	0.	0.	0.	-0.000000	0.000001	0.000001	2.647243	12.587121	0.876491	5.601671	-4.072903	3.682194	0.183517	-7.665293	-1.300961	55.976425	-135.424026	65.029022	-22.676889	-1.979010	6.873229	-1.414248	-0.800879	-9.154323	-15.474400	-15.705738	4.996932	-61.301323	-125.724838	-70.930084	-0.370539	-7.150050	15.934618	-1.966891	6.225958	16.109907	-11.485339	-3.058430	9.637271	
-0.029303	100.805590	0.010738	5.165527	2.145545	-49.383854	7.400558	-18.735668	12.792591	2.805388	20.384775	8.535113	-7.746641	-3.193695	7.206506	0.	0.	0.	-15.762924	-16.077101	-8.679056	2.730043	22.286907	-1.515724	8.243406	-8.000485	12.506422	0.	0.	0.	-0.000000	0.000001	0.000001	2.650883	12.605262	0.877752	5.598722	-4.083711	3.680806	0.182305	-7.672605	-1.299756	55.981239	-135.430649	65.035988	-22.669573	-1.977922	6.869789	-1.418293	-0.816035	-9.155545	-15.476067	-15.707550	5.004990	-61.301571	-125.732430	-70.926376	-0.388300	-7.150031	15.932697	-1.961425	6.212740	16.103622	-11.494910	-3.072587	9.641209	
-0.042808	100.802402	0.015663	5.165527	2.145545	-49.383854	7.400558	-18.735668	12.792591	2.816796	20.400396	8.532506	-7.759712	-3.207244	7.203272	0.	0.	0.	-15.766539	-16.103794	-8.685257	2.733783	22.346626	-1.507815	8.238606	-8.033722	12.505230	0.	0.	0.	-0.000000	0.000001	0.000001	2.650883	12.605262	0.877752	5.600726	-4.067338	3.678346	0.179619	-7.688809	-1.297077	55.993103	-135.445419	65.044701	-22.652641	-1.979091	6.868886	-1.418293	-0.816035	-9.155545	-15.480672	-15.706102	5.031680	-61.282520	-125.719185	-70.904442	-0.399406	-7.150018	15.931503	-1.961425	6.212740	16.103622	-11.499162	-3.077936	9.645351	
-0.056465	100.799175	0.020643	5.165527	2.145545	-49.383854	7.400558	-18.735668	12.792591	2.828331	20.416195	8.529896	-7.772933	-3.220945	7.199975	0.	0.	0.	-15.766539	-16.103794	-8.685257	2.736915	22.368504	-1.504869	8.236149	-8.056034	12.504266	0.	0.	0.	-0.000000	0.000001	0.000001	2.650883	12.605262	0.877752	5.600726	-4.067338	3.678346	0.179619	-7.688809	-1.297077	55.993103	-135.445419	65.044701	-22.652683	-1.982280	6.868849	-1.418293	-0.816035	-9.155545	-15.483419	-15.705235	5.047659	-61.267445	-125.705040	-70.889015	-0.399406	-7.150018	15.931503	-1.961425	6.212740	16.103622	-11.515199	-3.076266	9.657219	
-0.071856	100.795532	0.026258	5.165527	2.145545	-49.383854	7.400558	-18.735668	12.792591	2.841339	20.434000	8.526921	-7.787838	-3.236390	7.196280	0.	0.	0.	-15.766539	-16.103794	-8.685257	2.740111	22.391165	-1.501810	8.233652	-8.079143	12.503280	0.	0.	0.	-0.000000	0.000001	0.000001	2.650883	12.605262	0.877752	5.600726	-4.067338	3.678346	0.179619	-7.688809	-1.297077	55.993103	-135.445419	65.044701	-22.652895	-1.996289	6.868629	-1.418293	-0.816035	-9.155545	-15.485948	-15.704442	5.062299	-61.253616	-125.692078	-70.874886	-0.399406	-7.150018	15.931503	-1.961425	6.212740	16.103622	-11.524879	-3.075261	9.664381	
-0.079746	100.793672	0.029136	5.165527	2.145545	-49.383854	7.400558	-18.735668	12.792591	2.848008	20.443130	8.525413	-7.795477	-3.244306	7.194369	0.	0.	0.	-15.766539	-16.103794	-8.685257	2.743821	22.415882	-1.498570	8.230720	-8.104355	12.502210	0.	0.	0.	-0.000000	0.000001	0.000001	2.651995	12.610806	0.878140	5.599550	-4.072901	3.678253	0.179619	-7.688809	-1.297077	55.993103	-135.445419	65.044701	-22.649746	-1.999861	6.868716	-1.419474	-0.821546	-9.156318	-15.487578	-15.703928	5.071759	-61.244667	-125.683716	-70.865746	-0.399406	-7.150018	15.931503	-1.944256	6.218006	16.095726	-11.545086	-3.081490	9.668317	
-0.103103	100.788129	0.037662	5.165527	2.145545	-49.383854	7.400558	-18.735668	12.792591	2.867751	20.470156	8.520897	-7.818097	-3.267744	7.188736	0.	0.	0.	-15.766539	-16.103794	-8.685257	2.743764	22.441376	-1.493158	8.231199	-8.130344	12.500511	0.	0.	0.	-0.000000	0.000001	0.000001	2.656257	12.632038	0.879610	5.595042	-4.094200	3.677927	0.179619	-7.688809	-1.297077	55.993103	-135.445419	65.044701	-22.635799	-2.000040	6.866228	-1.424002	-0.842645	-9.159244	-15.487578	-15.703928	5.071759	-61.244667	-125.683716	-70.865746	-0.399406	-7.150018	15.931503	-1.918372	6.212921	16.080599	-11.577813	-3.090184	9.675473	
-0.117786	100.784622	0.043021	5.165527	2.145545	-49.383854	7.400558	-18.735668	12.792591	2.880172	20.487148	8.518043	-7.832326	-3.282483	7.185199	0.	0.	0.	-15.766957	-16.106894	-8.685978	2.731073	22.465101	-1.481636	8.242745	-8.151308	12.497169	0.	0.	0.	-0.000000	0.000001	0.000001	2.659998	12.650681	0.880905	5.591084	-4.112902	3.677637	0.179619	-7.688809	-1.297077	55.993103	-135.445419	65.044701	-22.632082	-2.000008	6.853198	-1.427976	-0.861172	-9.161816	-15.487578	-15.703928	5.071759	-61.244667	-125.683716	-70.865746	-0.399406	-7.150018	15.931503	-1.906071	6.207414	16.059296	-11.597963	-3.101926	9.687664	
-0.117786	100.784622	0.043021	5.165527	2.145545	-49.383854	7.400558	-18.735668	12.792591	2.880172	20.487148	8.518043	-7.832326	-3.282483	7.185199	0.	0.	0.	-15.766957	-16.106894	-8.685978	2.731073	22.465101	-1.481636	8.242745	-8.151308	12.497169	0.	0.	0.	-0.000000	0.000001	0.000001	2.663312	12.667196	0.882050	5.587579	-4.129467	3.677375	0.179619	-7.688809	-1.297077	55.993103	-135.445419	65.044701	-22.632048	-1.999990	6.849918	-1.431498	-0.877581	-9.164100	-15.487578	-15.703928	5.071759	-61.244667	-125.683716	-70.865746	-0.399406	-7.150018	15.931503	-1.893060	6.199641	16.050385	-11.628864	-3.109270	9.674826	
